<?xml version="1.0" encoding="utf-8"?>
<!-- Generator: Adobe Illustrator 23.0.1, SVG Export Plug-In . SVG Version: 6.00 Build 0)  -->
<svg version="1.1" id="Layer_1" xmlns="http://www.w3.org/2000/svg" xmlns:xlink="http://www.w3.org/1999/xlink" x="0px" y="0px"
	 viewBox="0 0 250.6 208" style="enable-background:new 0 0 250.6 208;" xml:space="preserve">
<style type="text/css">
	.st0{clip-path:url(#SVGID_2_);fill:url(#SVGID_3_);}
	.st1{clip-path:url(#SVGID_5_);fill:url(#SVGID_6_);}
	.st2{clip-path:url(#SVGID_8_);fill:url(#SVGID_9_);}
	.st3{clip-path:url(#SVGID_11_);fill-rule:evenodd;clip-rule:evenodd;fill:#91BA4D;}
	.st4{clip-path:url(#SVGID_13_);fill:url(#SVGID_14_);}
	.st5{clip-path:url(#SVGID_16_);fill:url(#SVGID_17_);}
	.st6{clip-path:url(#SVGID_19_);fill:none;stroke:#8BADD3;stroke-width:0.224;stroke-linecap:round;stroke-linejoin:round;}
	.st7{clip-path:url(#SVGID_19_);fill:none;stroke:#8BADD3;stroke-width:0.447;}
	.st8{clip-path:url(#SVGID_21_);fill:none;stroke:#FFFFFF;}
	.st9{clip-path:url(#SVGID_23_);fill:none;stroke:#FFFFFF;}
	.st10{fill:#0065A4;}
	.st11{clip-path:url(#SVGID_25_);fill:none;stroke:#FFFFFF;stroke-miterlimit:10;}
	.st12{clip-path:url(#SVGID_25_);fill:#0065A4;}
</style>
<g>
	<defs>
		<path id="SVGID_1_" d="M22.3,104.1c0,57.2,45,103.4,102.3,103.4c57.3,0,103.8-46.3,103.8-103.5C228.4,46.8,182,0.5,124.7,0.5
			C76.6,0.5,22.3,42.3,22.3,104.1"/>
	</defs>
	<clipPath id="SVGID_2_">
		<use xlink:href="#SVGID_1_"  style="overflow:visible;"/>
	</clipPath>
	
		<radialGradient id="SVGID_3_" cx="0" cy="208.03" r="1" gradientTransform="matrix(208.2433 0 0 207.7608 146.7046 -43185.4141)" gradientUnits="userSpaceOnUse">
		<stop  offset="0" style="stop-color:#FFFFFF"/>
		<stop  offset="0.3327" style="stop-color:#BED4E7"/>
		<stop  offset="0.643" style="stop-color:#88B0D3"/>
		<stop  offset="0.874" style="stop-color:#6799C7"/>
		<stop  offset="1" style="stop-color:#5A91C2"/>
	</radialGradient>
	<rect x="22.3" y="0.5" class="st0" width="206.1" height="207"/>
</g>
<g>
	<defs>
		<path id="SVGID_4_" d="M22.3,104.1c0,57.2,45,103.4,102.3,103.4c57.3,0,103.8-46.3,103.8-103.5C228.4,46.8,182,0.5,124.7,0.5
			C76.6,0.5,22.3,42.3,22.3,104.1"/>
	</defs>
	<clipPath id="SVGID_5_">
		<use xlink:href="#SVGID_4_"  style="overflow:visible;"/>
	</clipPath>
	
		<radialGradient id="SVGID_6_" cx="0" cy="208.03" r="1" gradientTransform="matrix(208.1699 0 0 -208.1699 146.7046 43478.5352)" gradientUnits="userSpaceOnUse">
		<stop  offset="0" style="stop-color:#FFFFFF"/>
		<stop  offset="0.1315" style="stop-color:#D3E5EF"/>
		<stop  offset="0.3729" style="stop-color:#89B8D5"/>
		<stop  offset="0.5892" style="stop-color:#4E94C0"/>
		<stop  offset="0.7722" style="stop-color:#247BB1"/>
		<stop  offset="0.915" style="stop-color:#0A6BA7"/>
		<stop  offset="1" style="stop-color:#0065A4"/>
	</radialGradient>
	<rect x="22.3" y="0.5" class="st1" width="206.1" height="207"/>
</g>
<g>
	<defs>
		<path id="SVGID_7_" d="M22.3,104.1c0,57.2,45,103.4,102.3,103.4c57.3,0,103.8-46.3,103.8-103.5C228.4,46.8,182,0.5,124.7,0.5
			C76.6,0.5,22.3,42.3,22.3,104.1"/>
	</defs>
	<clipPath id="SVGID_8_">
		<use xlink:href="#SVGID_7_"  style="overflow:visible;"/>
	</clipPath>
	
		<radialGradient id="SVGID_9_" cx="0" cy="208.03" r="1" gradientTransform="matrix(208.2433 0 0 207.7608 146.7046 -43185.4141)" gradientUnits="userSpaceOnUse">
		<stop  offset="0" style="stop-color:#FFFFFF"/>
		<stop  offset="0.1315" style="stop-color:#D3E5EF"/>
		<stop  offset="0.3729" style="stop-color:#89B8D5"/>
		<stop  offset="0.5892" style="stop-color:#4E94C0"/>
		<stop  offset="0.7722" style="stop-color:#247BB1"/>
		<stop  offset="0.915" style="stop-color:#0A6BA7"/>
		<stop  offset="1" style="stop-color:#0065A4"/>
	</radialGradient>
	<rect x="22.3" y="0.5" class="st2" width="206.1" height="207"/>
</g>
<g>
	<defs>
		<rect id="SVGID_10_" width="250.6" height="208"/>
	</defs>
	<clipPath id="SVGID_11_">
		<use xlink:href="#SVGID_10_"  style="overflow:visible;"/>
	</clipPath>
	<path class="st3" d="M123.9,8.7c-0.1-0.4,1.5-0.7,1,0.2C124.9,8.9,124,8.9,123.9,8.7"/>
	<path class="st3" d="M120.2,11.2c-0.3-0.4,1.1-0.5,1.3-0.3C121.9,11.3,120.2,11.2,120.2,11.2"/>
	<path class="st3" d="M149.9,3.6c-0.1-0.1-0.2-0.1-0.1-0.1C149.9,3.6,150,3.7,149.9,3.6"/>
	<path class="st3" d="M123.1,10.7c0.5-0.5,3-0.7,3.5-0.4c-0.1-0.1,1.3,2.1,1.4,2c-0.2,0.6,1.2,0.6,0.9,2c0-0.2-1.3,2-0.8,1.8
		c-1.3,0.7-1.1-2.7-1.4-3.6c-0.5-1.5-2.7-1.1-4-1.4C122.8,10.9,122.9,10.8,123.1,10.7"/>
	<path class="st3" d="M166.3,9.2c-0.1-0.1,0.1-0.3,0.2-0.3C166.6,9.1,166.4,9.3,166.3,9.2"/>
	<path class="st3" d="M129.2,21.7c0.7-0.1,1.8-0.1,2.5,0.8C132.1,23,123.7,23.3,129.2,21.7C129.3,21.7,128.8,21.9,129.2,21.7"/>
	<path class="st3" d="M126,23.2c0-0.1,2.3,0.1,2.3,0.1C128.9,24.3,125.6,24.8,126,23.2C126.1,22.7,125.9,23.4,126,23.2"/>
	<path class="st3" d="M159.3,15.8c-0.2-0.3,0.6-0.2,0.6-0.2C160,15.9,159.4,16,159.3,15.8"/>
	<path class="st3" d="M167.5,16.9c-0.1-0.1,0.1-0.3,0.2-0.3C167.8,16.7,167.6,17,167.5,16.9"/>
	<path class="st3" d="M125.9,33.7c0.5-0.4,1.1-0.6,1.7-0.4c-0.1,0.2-0.2,0.5-0.3,0.8c0,0,2.2,1.3,0.8,1.6c-0.8,0.2-2.7-0.4-2.8-1.5
		C125.4,33.9,125.6,33.8,125.9,33.7C126.3,33.3,125.8,33.9,125.9,33.7"/>
	<path class="st3" d="M160.9,25.9c0.8,0.2,3.6,1.8,3.8,2.5c0-0.1,0.7,0.9,0.7,1c0.2,0,0.3-0.1,0.4-0.3c0.2,0.3,0.3,0.5,0.2,0.9
		c0.2-0.2,0.4-0.4,0.5-0.6c0.2,0.1,0.3,0.2,0.3,0.4c0.2,0,0.2-0.1,0.2-0.3c0.8,0.3,1.8,1.3,1.5,2c0.1-0.1,1.7-0.6,2.1,0.4
		c0,0.1-0.7,2.4-1,2.4c0.7,0-2.2-1.6-1.9-1.3c-0.3-0.4,1-0.3,1-0.5c0.3-0.9-2.1-0.1-1.6-0.1c0.3-0.1-1.2-0.5-0.7,0
		c0.3,0.3,1.1,0,0.9,0.7c-0.2,0.5-1.9,0.3-2,0.1c0.1-0.2,0.1-0.5,0.1-0.7c0.4,0.1-1.7,1.2-1.8,0.2c0,0.1-1.9-1.5-1.8-1.6
		c0.1,0,3.4,0.1,3.3,0.3c-0.2,0.6-1.8-2.5-1.8-2.5c0,0,0.3,1.2,0.3,1.1c-0.1,0-0.2,0-0.3-0.2c-0.5,0.1,0.2,1.5-1.2,0.8
		c0.2,0.1-0.8,0-0.6,0.2c-0.5-0.3-1.1-2.1-0.6-1.7c-0.7-1-2.3-1-1.6-2.8c0.1-0.1,0.2,0,0.3,0.2C159.7,25.3,159.7,25.5,160.9,25.9
		C161.1,25.9,160.1,25.7,160.9,25.9 M166,30.8c0.1,0-0.4,0.2-0.4,0.3C165.8,31.8,166.6,31,166,30.8"/>
	<path class="st3" d="M124,36.3c0-0.4,0.6-0.4,1-0.2C126.1,36.9,123.7,37.7,124,36.3C124,36.2,123.8,37,124,36.3"/>
	<path class="st3" d="M128.6,36.3c0.4-0.3,1.2,0.6,1.1,0.9C129.4,38,127.5,37,128.6,36.3C128.8,36.1,127.5,37,128.6,36.3"/>
	<path class="st3" d="M177,25.7c0.4-0.6,1.6,0.5,1.1,0.9C177.8,26.8,176.7,26.2,177,25.7"/>
	<path class="st3" d="M166,34.6c0.1,0-0.8-0.7-0.8-0.5c-0.1-0.9,1.5-0.3,1.6,0.2C166.7,34.7,166.4,34.8,166,34.6
		C165.9,34.6,168.2,34.7,166,34.6"/>
	<path class="st3" d="M171.5,32.6c0.2-0.2,1.4,0.1,1.1,0c0.6,0.5,0.8,2,0.5,2.8c-0.2,0-0.4,0-0.5-0.1c0.8,0.2-1,0.6-1.2,0.6
		c-0.4-0.1-2.1-0.1-1.8,0c-0.4-0.1-1.4-0.2-1.3-0.8c0,0.2,1.8-0.7,1.9-0.7c-0.2,0,0.4,0.9,1.3,0.2C172.1,33.9,170.9,33.2,171.5,32.6
		C172,32.1,171,33,171.5,32.6"/>
	<path class="st3" d="M165.8,34.5c0.1,0.2,0.3,0.3,0.5,0.3c-0.8,1.9-2.6-0.5-2.8-0.2C163.9,34.1,165.3,34.2,165.8,34.5
		C165.8,34.5,165.7,34.4,165.8,34.5"/>
	<path class="st3" d="M167.9,33.7c0-0.3,0.4-0.3,0.4-0.1C168.3,33.9,168.1,33.6,167.9,33.7"/>
	<path class="st3" d="M180.5,37.6c-0.2,1-0.6,0.4-1,0.7c-0.8,0.6,1.2,1.1-1,0.8c-0.8-0.1-0.3-1-0.5-1.1c-0.7-0.2-0.2,1.1-1.2,0.3
		c-0.8-0.6-2.8-1.7-2.9-2.9c0.2-0.2,0.5-0.3,0.8-0.2c-0.1-0.4-0.2-0.7-0.3-1.1c0.2,0.1,0.5,0.1,0.7,0c0-0.1-1.4-0.5-0.5-1.2
		c0.8-0.7,1.4,0.4,1.2,0.4c0.8,0,0.5,0,1.2,0.2c0.1-0.1,0.2-0.3,0.1-0.5c0.2,0.1,0.3,0.2,0.5,0.3c0.4-1.5,0.6-0.3,1.2-0.8
		c0.6-0.4-0.9-1,0.4-1c1,0,0.4,0.4,1.1,0.6c0.1-0.3,0.3-0.5,0.5-0.6c0.2,0,0.4,1.4,1.5,0.4c0.1-0.1,1-1.5,1-1.5c0.2,0,3,2.1,3,2
		c0,0.2-2.2,1.1-1.7,1.2c0.7,0.1,0.9,0.7,1.3,0.7c0.1-0.1,0.2-0.3,0.1-0.5c0.1-0.1,1.3-0.4,1.5-0.4c0,0.1,0.1,0.3,0.1,0.4
		c0.3,0.2,1.5-0.1,2,0.6c0.2,0.3-0.7,0.5-0.7,0.6c0-0.1,0.3,0.6,0.1,0.4c0.4,0.4,1.6-0.3,1.9,0.2c0.1,0.1-0.7,2-0.9,2
		c-0.1,0.1-1.5-1.1-2,0.1c0,0.1,1.3,1.4,0.5,1.9c-0.3,0.1-1.3-0.8-1.4-1c-0.8-1.8,0.1-1.1-1.4-1.9c-1.7-1-1.9-2.8-3.9-1.5
		c0.1-0.1-2.1-0.2-2.3,0.1c-0.1,0.1,1.3,0.6,1,0.2C180.3,35.7,180.5,37.7,180.5,37.6C180.5,37.7,180.7,36.9,180.5,37.6 M177,33.9
		c0.1,0.3-1.3-0.7-0.9,0C176.5,34.5,177.1,34.2,177,33.9 M176.8,36.7c0.4-0.6-1.1-0.9-1-0.4C175.8,36.3,176.8,36.8,176.8,36.7"/>
	<path class="st3" d="M163.3,36.5c0-0.1,0.3-0.5,0.6-0.4C164.5,36.4,162.9,37.8,163.3,36.5"/>
	<path class="st3" d="M164.2,37.4c0.4-0.7,1.2,0.1,1,0.4C165,38.3,163.9,37.8,164.2,37.4"/>
	<path class="st3" d="M170.6,36.5c0.1-0.4,1.7-0.4,1.3,0.3C171.4,37.5,170.5,37.1,170.6,36.5C170.6,36.2,170.7,36.1,170.6,36.5"/>
	<path class="st3" d="M163.7,38.9c0.6-0.8,1.3,0.7,1.4,1c-0.2-0.1-0.5-0.2-0.8-0.3c0.2,0.4,0.4,0.8,0.5,1.2c0-0.2-1.3,0.1-0.8,0.4
		C163.3,40.7,163.1,39.6,163.7,38.9C164.2,38.1,163.1,39.7,163.7,38.9"/>
	<path class="st3" d="M183.2,35.6c0-0.3,0.4-0.3,0.4-0.1C183.4,35.7,183.3,35.8,183.2,35.6"/>
	<path class="st3" d="M180.6,36.4c0-0.4,0.3-0.1,0.3,0.2C180.9,37,180.7,36.7,180.6,36.4"/>
	<path class="st3" d="M165.3,40.7c-0.1-0.3,0-0.3,0.3-0.1C165.7,41.2,164.9,41.5,165.3,40.7C165.3,40.7,165.3,40.8,165.3,40.7"/>
	<path class="st3" d="M172.8,38.9c0.1,0,4.4,1.4,3.4,2.6c-0.8,0.9-2.8-0.6-3.2-1c0.4,0.2,0.6,0.2,0.6-0.2
		C173.6,39.8,171.1,39.5,172.8,38.9C173.2,38.7,172.8,38.9,172.8,38.9"/>
	<path class="st3" d="M183.1,36.3c0.5-0.8,1.7,0.5,1.4,1C184.5,37.3,182.9,36.7,183.1,36.3"/>
	<path class="st3" d="M139.4,48.4c0.4-0.2,0.9-0.5,1.3,0.1c0.3,0.5-1.6,0.8-1.8,0.3C138.9,48.5,139.1,48.4,139.4,48.4
		C139.6,48.3,139.2,48.5,139.4,48.4"/>
	<path class="st3" d="M169.2,44.3c0.5-0.1,0-1,0.3-1.1c0.4-0.2,0.6,0.8,0.8,0.9c-1.1-0.2,2.3-1.1,1.3-0.3c0.3-0.2-0.1-1-0.3-1
		c0.2,0,1.7,0.8,1.8,0.6c-0.2,0.2-2-2-1.9-2.3c0.3-1.4,1.9,0.7,2.4,1.1c1.3,1,2.5,1,3.2,1.1c0.9,0.1,1.6,0.9,1.2,1.7v-0.4
		c0.6-0.2,0.8,0.6,0.6,1c-0.3,0.9-1,0.1-1.5,0.5c-0.6,0.5,0.5,2.2-1,2.9c0,0-2.8-0.3-3.1-0.4c-1.6-0.3,1.4-2,1-2.3
		c-0.7-0.4-1.7,0.9-2.3,1c-1.4,0.3,0-1.4-0.2-1.5c-0.2,0.2-0.4,0.4-0.5,0.6c-0.1,0-2-0.9-1.4-1.2c-0.7,0.5,1,3.4-1,2.3
		c-0.5-0.3-0.3-0.7-1-0.4c-0.9,0.3-0.9-1.9-1.3-2.4c-1-1.7-0.7-1.4,1-1.4c0.5,0,0.4-0.7,1-0.5C169.6,43.2,168.3,43.6,169.2,44.3
		C169.7,44.2,168.8,44,169.2,44.3"/>
	<path class="st3" d="M186.3,42.6c-0.2-1,0.1,0,0.4-0.1c0.5-0.2,1.2-0.4,1.9-0.5c2.5,0,0.2,0.6,0.2,0.9c0.1,0.5,1.4,1.1,1.1,1.8
		c0-0.1-1.1,0-0.8,0.3C188.7,44.5,186.4,42.9,186.3,42.6C186.1,41.6,186.3,42.6,186.3,42.6"/>
	<path class="st3" d="M119.6,61.6c0.1,0,0.9-0.2,0.9,0c-0.1,0.7-1.5,0.4-1.5,0.4C119.2,61.8,119.4,61.7,119.6,61.6
		C119.8,61.5,117.9,62.4,119.6,61.6"/>
	<path class="st3" d="M190.7,43.7c0-0.4,1,0.8,0.7,1.2C190.8,45.2,190.7,43.8,190.7,43.7C190.7,43.5,190.7,45.1,190.7,43.7"/>
	<path class="st3" d="M204.9,43.1c0.2-1.5,0.8,2.4,0.2,0.6C205,43.6,204.9,43.3,204.9,43.1"/>
	<path class="st3" d="M142.2,61.4c0.4-0.7,2.3,1,2.3,1C144,63.2,141.9,61.8,142.2,61.4C142.6,60.7,142,61.7,142.2,61.4"/>
	<path class="st3" d="M199.1,48.2c0-0.4,1.3,0.3,0.9,0.9C200,49.2,199.1,48.5,199.1,48.2"/>
	<path class="st3" d="M145.1,67.5c0.3-1.1,1.8,0.2,1.2,0.8C146,68.6,145,67.8,145.1,67.5C145.1,67.2,145.1,67.5,145.1,67.5"/>
	<path class="st3" d="M203.2,53.6c-0.1-0.3-0.2-0.6-0.2-0.9C203.5,52.2,204,53.8,203.2,53.6C203.2,53.6,203.2,53.6,203.2,53.6"/>
	<path class="st3" d="M157.8,72.1c-0.6-0.2,0.5-1.1,0.8-0.7C158.7,71.6,158.1,72.2,157.8,72.1"/>
	<path class="st3" d="M157.8,72.1c2.1,0.6-1.5,3.6-1.6,0.9c0-0.3,0.8,0.3,0.8,0.3c0.1-0.2,0.2-0.5,0.1-0.7
		C156.9,72.8,158,72.1,157.8,72.1C158.1,72.1,157.4,71.9,157.8,72.1"/>
	<path class="st3" d="M211,61.9c0.5-0.8,0.7,1.1-0.1,0.7C210.8,62.5,211,62,211,61.9"/>
	<path class="st3" d="M94.7,5.5c1.6-0.4,0.1-0.3,1.7-0.7c0.1,0.2,0.6,0,0.6-0.2c3.3-0.8,8.9-2.3,12.1-3.1c2.7-0.5,26.1-2.5,31.1,0.1
		c-0.5-0.2-4.2-0.6-5,0.7c-0.3,0.5-4.3-0.6-4.7,0c0,0,7.8-0.2,7.4,1.8c0.2-0.8-1.8,0-1.9,0.3c-0.3,0.5,4.4-0.2,4.5-0.7
		c0.2-0.8-2.1-0.8-2-0.9c0-0.1,2.2-1,2.5-1.1c0.5,0,1.4,0.1,1.3,0.1c1.4,0.1,0.9,0.3,2.3,0.6c0.6,0.1,3.7,0.8,4.1,0.6
		c-0.5,0.2-4.5-0.2-4.4-0.3c-0.1,0.2,7.4,1.5,6.6,2.5c0.3-0.4-7.9,0.8-7,1.5c0.2,0,0.4,0.1,0.6,0.2c-0.6,0.1-1.1,0-1.7-0.3
		c-0.3,0.2-0.5,0.4-0.8,0.7c-0.3,0.1-1.1,0.1-1.6,0.2c-0.4,0.1-2.3,0.5-2.4,0.4c0-0.2-0.1-0.3-0.1-0.4c-0.1,0.1-0.2,0.3-0.1,0.5
		c-0.9,0.4-3-1-3.4-0.6c-0.2,0.2-7.4-0.2-7.7-0.7c-0.9-1.8,4.1-0.5,4.4-0.9c0,0.1-3.8-2.2-4.6-1.1c0-0.1,1,0.3,1.2,0.2
		c-0.6,0.4-1.5,0.2-2.1,0.6c2-1.5-1.3,2.8-1,0.8c-0.1,0.8,1.9,1.2,1.9,1.1c-0.1,1.2-2.7-0.3-3-0.2c0,0-0.2,1-0.1,0.7
		c-0.1,0.2-1.4,1.5-1.6,1.5c-0.5-0.1-0.3-1-1.2-0.1c-0.1,0.1-1.1,1.8-1.7,1.4c-0.1-0.1,1.3,0.3,1.1,0.5c-1.2,1.1-4.1,0.2-4.9,1.2
		c-0.3,0.4,4.3,0.3,4.3,0.3c0.3,0.1,2.7,1.9,2.8,2.2c0.1,0.3-1.2-0.5-0.6-0.5c-0.9,0.1-1.3,1.2-2.2,0.2c-0.6-0.6-2,0.1-2.8-0.3
		c-1.2-0.5-2.2,0.1-3.2-0.1c-0.5-0.1-1.7-1.8-1.3-1.7c-0.5,0-0.9,0.2-1.2,0.5c-0.4,1.4,2.7,1.1,3.1,1.3c-0.1,0.2-0.1,0.5-0.1,0.7
		c0.3-0.2,0.5-0.4,0.7-0.7c0.9-0.3,1.9,0.5,3,0.3c0.6-0.1,2.2,1,2.1,1c-0.4,0.3-1.4-0.7-1.5,0.3c0.3,0.1,0.5,0.3,0.6,0.5
		c-0.1,0.1-2.2,0.7-2,1c0.1,0.2,2.8-0.7,3.3-0.4c0.6,0.5-0.5,1.4-0.2,1.9c0.5,0.9,2.1-0.6,2.4,1.1c0.2,0.9,1.1,1.8,0.9,2.5
		c-0.1,0.6,2.4,0.4,2.5,1.5c0,0.1-1.8,0.3-1.9,0.5c-0.5,0.6,1.1,1,0.2,1.5c-0.8,0.5-1.4,0.3-2.3,0.6c-0.9,0.3-2.6-1.3-2.8-1.4
		c-0.3-0.1-0.9-0.3-1.2-0.1c-0.4,0.2,1.5,0.8,1.6,0.9c0.5,1.1-0.8,0.7-0.9,1.1c-0.1,1,2,1.2,0.3,1.9c-2,0.8,2.1,1.7,1.9,1.5
		c0.4,0.6-1,2.8-1.1,2.5c-0.1-0.2-2.5,1.2-2.3,1.6c0.7,0.9,1.6-0.6,2.3-0.1c-0.1-0.1,0.4,2.3,0.3,2.2c-0.3-0.2,1.6,0.7,1.1,0.6
		c0.5,0,1-0.8,1.9-0.7c1.1,0.1,2.5,2.4,2.7,3.7c-0.2-0.1-0.5-0.1-0.7-0.1c-0.4,1.4,0.8,2.1,1.9,2.5c1.9,0.7,1.2,1.7,1.1,3.2
		c-0.1,0.6,3.1,1.4,3.8,1.8c0.7,0.4-0.3,1.7,1.3,1.7c0.1,0,0.2-1.3,0.5-1.5c0.4-0.2,1.3,1,1.7,1.2c0.9,0.4,1.4-0.1,2.1,0.8
		c0.9,1.3,2.1,2.4,3.2,3.6c0.5,0.5,0.4,1.3,0.8,1.6c1,0.9,2.5,0.6,3.2,2.1c0.6,1.3-1.7,0.7-1.8,0.7c0.2-0.2-0.9,1.5-0.9,1.1
		c0.2,0.3,0.3,0.5,0.4,0.8c-1.9,0.8-2.1-1.9-2.9-2.5c-0.4,0-0.8-0.2-1.2-0.4c-0.1-0.2,0.5-1.6-0.2-1.6c-0.5,0-0.2,1-0.4,1.2
		c-0.7,1-1.8,0.6-2.7,0.6c0.5,0,0.3,2.9,0.4,3.3c0.1,1.2-2.3-0.2-2.8-0.2c-1.3,0.2-2.7,0.2-4,0.6c-0.3,0.1-2.3,1.3-2.2,1.3
		c-0.5-0.1-0.3-1.2-0.9-1.4c-0.5-0.2-2.6-0.3-2.7,0c0.1-0.2,0.9-0.5,0.5-0.8c-0.4-0.3-1,0.6-1.4,0.6c-0.5,0,0-1.1-0.9-0.9
		c-0.5,0.1-3.1,1.7-3.1,2.1c0.3,0.2,0.6,0.5,0.9,0.7c-0.1,0.2-1.3,2.5-1.4,2.6c-0.4-0.2-0.8-0.3-1.2-0.4c-0.8,0.2-0.3,1.5-0.9,1.8
		c-0.7,0.3-1.7-0.4-2.5-0.1c-0.6,0.2-0.5,1.2-1,1.4c-0.4,0.1-0.7,0-0.9-0.4c-0.8-0.8-1.1,0.7-1.5,1c-0.4,0.3-2.5,1.2-2.9,1
		c-0.2-0.1,4.8-11,7.9-9.6c2.2,1.1,4.6-2.2,6.7-1.5c0.3,0.1,3.5-1.8,3.4-1.7c0.2-0.9-4.3,1.1-5.1,0.6c-0.4-0.2,0.3-0.9,0.4-1
		c1.2-1.1-1.2-1-1.7-1.4c-0.7-0.5-2.5,0.3-3.2,0.6c-1,0.3-0.9,1.6-0.8,1.6c-0.5,0.1-3.7-1.1-3.3-1.8c0.1-0.2,1,0.4,1.1,0.3
		c0.6-1.4-2.4-1.7-2.6-2c-0.4-0.6-2.6-2.5-3.4-2.7c-2-0.3-4.6,0.8-6.7,0.8c-0.9,0-1.9-0.3-2.9-0.4c-1.5,0,0,1.1,0,1.5
		c-0.3,0.1-1,0.3-1,0.6c-0.1,0.4,1,0.1,1,0.1c-0.3,0.2-0.6,0.4-0.8,0.6c0.5-1,2.2,0.8,2.1,1.8c-0.1,0.4-1.7,2-1.5,2.2
		c0.3,0.3,2.9-1.6,3.4-1.8c0.3,1.2-2.6,3-3.2,3.8c-0.6,0.9-1.3,4.4-2.3,4.7c-0.7,0.2-0.3-2.7-2.5-0.4c-0.8,0.8-0.9,2.8-1.9,3.1
		c1.6-0.5-1-1.8-1.1-0.9c-0.1-1,8-7.6,7.4-8c-0.8-0.4-3.3,1.5-3.7,2c-1.5,1.7-3.2,1.8-5.4,2.5c-2,0.6-8.7,3.2-9-0.2
		c-0.2-1.7-4.7,0.5-5.5,0.3c-2.9-0.7-1.7,0.7-2.9,2.5c-1,1.5-1.3,4-3.7,4.3c-0.1-0.2-0.1-0.4-0.2-0.6c-0.2,0.2-0.3,0.3-0.6,0.4
		c-0.4-0.2-0.5-0.4-1.1-0.6c0.3,0.1-0.7-1-0.7-1c0.1-0.7,1.8-1,2.1-1.4c1-1.1,0.2-1,1.3-1.2c1.3-0.3,0.6-2,0.3-2.7
		c-0.3-0.9,1-0.8,1.4-1.2c3.1-2.6-2.1-2.2-2.4-3.1c-0.1-0.3,2.1-1,2.5-1.1c3.2-1.2-2.8-1.6-3-2c-0.9-1.3-1.3,1.5-1.8,2
		c-0.8,0.7,2.8,2.7,1,4.1c-0.1,0.1-3.2-1.7-4.5-0.7c-0.4,0.3-0.5,2.2-1,2.9c-0.8,1.1-0.8,2.4-1.5,3.5c-0.1,0.1-0.6-0.7-0.4-0.8
		c-0.6,0.4-0.1,1.3-0.6,1.7c-0.3,0.3-1.1-0.5-1.2-0.3c-0.6,0.8,0.3,1.8-0.7,2.7c-0.2-0.1-0.3-0.2-0.3-0.4c-0.1,0.1-0.2,0.3-0.1,0.5
		c-0.1,0.1-0.9,0.6-1.2,0.8c-0.1-0.2-0.1-0.4-0.2-0.6c-0.7,0-1.4,1.2-2.2,1.2c0.1-0.2,0.1-0.5,0.1-0.7c-0.1,0-1.6,1.6-1.6,1.7
		c0-0.3-1.5-0.7-1.6-0.7c-0.3,0-2.4,0.7-2.7,0c-0.1-0.3-0.2-1.3-0.8-1.3c-1,0.1,0.2-1,0.1-1.1c-0.4-0.3-0.5,0.5-0.5,0.6
		c-0.2-0.1-0.2-0.2-0.1-0.4c-0.2,0.1-0.4,0.1-0.6,0.2c-0.1-0.2,0-0.4,0.1-0.5c-0.1-0.1-0.8-0.4-1.1-0.9c-0.6-0.9-1,0.7-1.2,0.4
		c0,0,0.3-1.3,0.3-1.3c0.7-1,0.8-0.8,0.8-2.2c-0.1-2-3-0.1-3.4,0.8c-1.4,3.3-1.8,6.9-3.5,10.2c-0.4,0.8-0.7,1.1-0.8,1.3
		c-1.6,2.3-1.4-0.3-2.4,0.2c-0.1-0.2-0.1-0.4-0.2-0.6c0-2.2,0.6-4.4,1.3-6.5c0.2-0.5,1.1-3.8,1.1-3.9c0,0-1.7,1.9-1.8,2.2
		c-0.6,1.3-2.7-1.1-2.2-2.4c0.9-2.6,2-5,3.2-7.5c0.9-1.9,1.6-4,2.8-5.7c1.1-1.6,3.8-5.9,5.2-7.9C53.2,29.1,69.5,13.9,94.7,5.5
		C100.2,4.1,96,5,94.7,5.5 M113.5,15.2c-0.2-0.3-2.1,0.2-2,0.3C111.8,15.8,113.6,15.4,113.5,15.2C113.5,15.3,113.7,15.5,113.5,15.2
		 M116.4,17.6c-0.8,0.1-2.1-0.7-2.7,0C114.6,17.4,115.8,18.3,116.4,17.6 M120,24c-0.2,0.1,0-1.2,0.2-1C119.7,22.3,119,24.7,120,24
		C120.1,24,119.6,24.3,120,24 M93.8,58.7c0.4-0.5-1.4-0.9-1.2-0.4C92.5,58.2,93.5,59,93.8,58.7C94.1,58.2,93.5,59,93.8,58.7"/>
	<path class="st3" d="M218.8,119.3c-0.6-1.4-1.9-0.7-1.8-2.5c0.1-1.8-1-2.6-2.3-3.3c-0.5-0.1-0.8-0.4-0.8-0.8c-0.1-0.8-1,0-1.5-0.4
		c-0.8-0.7,1-1.1-0.9-1.5c-2.2-0.5,0.3-0.5-0.7-1.1c0,0-2.5,0.3-2.2-0.9c0.6-2.1-3.3-2.8-3.3-2.8c-0.9,1.6,2.4,3.4,3.1,4.2
		c0.8,1,5.4,6.5,4.2,6.9c-1.2,0.5-3.2-3.9-4-4.2c0,0.3-0.1,0.5-0.3,0.8c-0.1,0-1.4-0.6-1.5-0.7c-0.1-0.3,1.5-1.5,0.1-2.2
		c-2.3-1.1-2.8-3.2-4.3-5c-0.9-1-4-0.9-4.2-1.4c-0.4-1.6-3-2.3-3.1-4c0,0,0.8,0.2,0.4-0.3c-0.5-0.5-0.6,0.4-1.1,0.3
		c-0.4-0.1-0.9-1.3-1.1-1.6c-0.4-0.6-0.7-1.2-1.1-1.7c-0.8-0.9,0-2.1-0.7-3.1c-1.6-2.2-1.6-4.5-2.1-7.1c-0.2-0.7-2.5-2.9-2.1-3.5
		c0.2-0.3,1.7-0.1,2-0.1c0.2-0.5-1.3-2.1-1.8-2.5c0,0.2-0.1,0.4-0.3,0.5c-0.1,0,0.7-0.9-0.4-0.8c1,0-0.5,0.9-0.6,0.4
		c0.1,0.4,2.3,1.6,2.1,2c-0.5,1.1-1.8-0.5-1.7-0.5c-0.7-0.1-1.6,0.5-2.1-0.7c0,0.1-2.2-0.6-1.8-1.1c0.4-0.3,1.4,0.2,2-0.3
		c-0.6-0.5-1.5-0.2-2-0.9c-0.5-0.7,0-1.1-0.4-1.7c0.3,0.4-0.9-0.9-0.9-0.9c-0.7-0.3-1.4-0.6-2-0.9c-0.1-0.2,0-0.5,0.1-0.7
		c-0.2-0.2-1,0.6-1-0.1c0-0.9,0.4-0.4-0.3-1.2c0.1,0.2,0.1,0.5,0,0.7c-0.3-0.2-0.8-2.3-1.2-2c-0.9,0.1,1,0.9,0.3,1.3
		c-0.9,0.5-0.9-3-2.1-2c-0.4,0.4,2,3.1,2,3.1c-0.9-0.2-1.9-1.5-2.4-2.3c0.3,0.5-0.9,0-0.4-0.8c0.3-0.4,0.2-2.1-0.7-1.8
		c0.1-0.1,0.7,1.9-0.1,1.7c-0.4-0.1-0.3-1.2-0.8-1.4c0.3,0.1-0.6,0.7-0.5,0.7c-0.3-0.3-0.5-0.6-0.5-1.1c0,0.1,1.1,0.2,0.6-0.2
		c-2.2,0.4-3-1.1-4.6-1.8c-0.5-0.2-3.5,0.4-3.8-0.3c0,0-3-1.3-3.1-1.1c-0.5,0.4,0.1,1,0.3,1.4c0.5,0.9-0.7,0.5-0.8,0.6
		c-0.2,0.5-0.1,0.4-0.5,0.8c-1.4,1.3-1.1-0.2-1.3-0.2c-2.1-0.1,1.1-2.6,0.9-2.2c-0.2-0.2-0.2-0.5,0.1-0.7c-1.1,0.5-4.1,4.7-2.3,4.2
		c0.1,0-1.7,1.7-2.1,2c-1.4,0.9-2.1,2.9-3.7,3.7c-0.5,0-1.8,0.6-2.6,0.6c0-0.2-0.2-0.3-0.3-0.4c0.1,0-1.4,1.9-2.1,0.9
		c0.1,0.1,4.3-2.5,4.2-1.9c0-1.1,1.7-1.7,2.6-2.3c0.8-0.5-0.1-1.6,0.5-2.5c-0.6,0.9-1-0.3-1.4-0.2c0.1,0.3,0,0.6-0.3,0.8
		c-0.3-0.1-0.8-0.7-1.1-0.9c-0.6-0.5-1.3,0.9-1.8,0.5c0.2,0.2,0.2-2,0.2-2.2c-0.3-1-1.2,0.1-1.9-0.2c-0.3-0.1-1.6-2.6-1.5-3.1
		c0.1-0.5,1.1-2.2,1.5-2.4c0.5-0.3,0.9,0.8,1.2-0.2c0.2-0.4,2,0.1,1.5-0.7c-0.1-0.1-0.4-1.6-0.1-1.4c-0.7-0.6-0.9,0.5-1.4,0.6
		c0.1,0-2.4-0.8-1.7-0.6c-0.3-0.1-1.8-2-1.7-2.3c1.4-2.4,3.3,1.1,4.4-0.1c0.7-0.7-4.7-3.9-3-4.4c1.8-0.6,1.6-1.6,3.2-2.3
		c0.6-0.3,1.3-0.1,1.7-0.3c1.3-0.7,0.1-0.7,1.3-0.1c0-0.2,0.2-0.3,0.4-0.3c0.1,0.2,0.2,0.4,0.4,0.6c0.3-0.1,0.7-0.2,1.1-0.3
		c0.5,0.3-0.9,0.5,0.3,0.8c1.2,0.4,2.9,0,4.1,0c1.6-0.1,4.2,2,5.7,1.2c-0.8,0.4,0-1.3,0.1-1.4c-0.3,0.3,0.6,0.5,0.8,0.5
		c0.5-0.2,0.3-1.5,0.9-1.7c0.3-0.1,0.3,1.4,0.6,1.2c0.3-0.2,0.4-1.9,0.4-1.9c0.2,0,1.4,1.1,1.9,1.1c-0.1,0-0.6-1.1-0.5-1.2
		c0.1-0.1,0.8,0.8,1.1,0.7c0.6-0.3,0.1-0.7,0.7-1c0.7-0.3,3-0.2,3.8-0.3c1.1,0,0.7,2.4,2.5,0.8c0.4-0.4-0.1-1,0.7-1.1
		c0.8-0.1,1.1,1,1.8,0.9c0.2-0.1-1.2-1.7-1.6-1.9c-2.4-1.2,1.6-0.6,2.3-1c2.2,0-1.7-3.8-1.7-3.8c0.3-1.3,3.3,2.1,3.8,1.9
		c0-0.5-1-1.1-1.2-1.7c-0.4-1.6-0.7,0-1.2-0.7c-0.2-0.3,0.1-1.3-0.8-0.5c-0.7,0.6-0.7-0.4-1.6-0.7c-0.8-0.2-0.9-1-1.5-1.5
		c-0.9-0.7-2.2-0.9-3-1.6c-0.7-0.6,0.2-2.1,1-1.3c0.8,0.8,0.4,1.1,0.8,1.9c0.4,0.5,6.3,3.2,6.8,2.6c-0.6-0.1-0.9-0.4-0.9-0.9
		c0.8-0.8,2.1,1,2.8,1.1c0.2,0-1.5-1.5-1.6-1.6c-0.4-0.4-2.8-1.8-1.5-2.4c1.1-0.5,5.1,2.3,4.7,3.2c-0.2-0.1-0.5-0.1-0.7-0.1
		c0.2,0.5,1.3,0.3,0.9,0.9c-0.2,0.3,0.6,1.4,0.9,1.6c0.6,0.6,2.3,1,1.7,2.3c-0.5,0.9,0.8,0.7,0.8,1.6c0,0.3,0.9,2,1.1,2.5
		c0.6,1.5,2.6,4.2,4.2,4.7c-0.1,0,0.2-1.4,0.9-0.5c0.4,0.6,0.9,0.9,1.5,1.2c-0.2,0,0.9-1.4,1.7-1.5c0.6-0.1,1.5-0.1,1.9-0.5
		c0.3-0.2-0.1-1.5,0.5-1.5c0.8-0.1,1.7,2,2.4,2.4c0.7,0.3,1.5,0.2,2.2,0.6c0.6-0.6-1.8-3-2.5-3.5c-2.2-1.4-2.8-3.9-5.3-5.4
		c-0.7-0.4-1.4,0.2-1.8-0.5c-0.8-1.2-1.5-1.2-2.6-1.9c-0.5-0.3-2.3-1.5-2.1-2.2c0.2-0.5-0.1-1.5,0-1.6c0.1-0.1,1.7-0.1,1.8-0.2
		c0.2-0.3,0.1-0.5-0.1-0.6c0.3,0.4,3.5,2,2.9,0.5c-0.2-0.5-2.3-2.9-2.6-2.7c0.9-0.3,2.5,0.7,3.1,0.4c0.4-0.1,0.4-0.1,0.9,0.4
		c0.6,0.6,0.8-1.5,0.9-1.6c0.1,0.3,0.3,0.5,0.6,0.5c-0.1-0.3-0.1-0.5,0.1-0.7c1.5,0.1,2.4,2.2,3.8,2.5c-0.4-0.3-0.5-0.6-0.3-1.1
		c1.9-1,2.8,4.8,3.5,5.4c-1.5-1.3-3-3-4.2-4.6c0.3,2,2.4,3.3,2.9,5.4c0.2,0.7,1.1,3.9,2.2,4.1c0.6,0.1-1-1.8-0.3-2
		c0.2-0.1,2.1,3.4,2.8,2.2c0.1-0.9-0.7,0.5-1-0.4c0-0.1-0.7-3-0.8-2.9c0.4-0.4,1.1,1.7,1.1,1.8c0,0,3.2,5.6,3.2,5.6
		c-0.8,0-0.7-1.4-1.3-1.5c0.5,0.9,3.4,7.5,3.8,6.7c0,0,1.2,3.6,1.3,3.9c0.4,1.3,1.2,2,1.8,3.2c0.5,1.1,0.2,2.3,0.9,3.1
		c0.1-0.3,0.1-0.5,0.3-0.7c2.2,3.2,2.8,7.2,3.6,11.1c0.3,1.2,4.7,10.4,3.7,10.8c-0.6,0.2-1.7-3.9-2.6-3.9c0.6,0-0.8,2.4-0.8,2.4
		c-0.1,0.5-0.9,2.7-0.5,2.9c0.3,0.2,0.7,0.7,0.7,1.3c-0.2,0-0.3-0.1-0.5-0.1c0,0.2,0.1,0.4,0.2,0.6c-0.6,1.7-0.5-0.1-1,0.5
		c-0.1,0.1-1.2,3.2-1.1,2.8c-0.6,3.1,0.3,5.3,0.7,8.3c0.3,2.7,0.5,5.4,2,7.8c1.4,2.1,2.5-1.7,2.7-2.8c0.4-2.2-1.2-6.4,0.7-8.3
		c-0.3,0.4,0.6,8.7,0.9,9.3c-0.5-0.3,1.1-4.3,1.2-4.2c0.4,0.2-0.5,6.7-0.4,7.5c0-0.9-0.2-1.8-0.1-2.7c-0.1,1,0.9,5.1-0.2,5.6
		c0.5-0.2-0.2-2.7-0.3-2.6c-0.5,0.5-0.4,1.4-1.1,1.9c-1.7,1-1.2-0.2-2.3,2c-1,2-4,1.4-4.9,2.9C218.9,119.3,218.8,119.3,218.8,119.3
		C218.5,118.8,218.8,119.3,218.8,119.3 M173.8,53.9c-0.5,0.5-0.6,1-0.3,1.7c-1.1-1.2,2.1-1.6,2.1-1.6c-0.1,0.3-1.3,0.7-1.4,0.8
		c0.2-0.1,0.4-0.1,0.6-0.2c0.4,0.1,0,1.5,0,1.7c0,1.3,1.5-0.9,1.1-0.9c0,0,0.4,0.8,0.6,0.5c0.2-0.4-0.6-1.4-0.6-1.5
		c0.3-0.1,0.6-0.1,0.9-0.2c-0.1-0.5-0.4-0.9-0.8-1.2c0.3,0.4-0.6,0.8-0.7,0.8c-0.5,0,0.1-1-0.1-1.1C175,52.7,174,53.7,173.8,53.9
		C173.4,54.5,173.9,53.8,173.8,53.9 M206,62c0.8,0.8-0.4-1.8-0.4-0.6C205.6,61.7,205.9,61.9,206,62 M210.1,62.9c0,0-1.3-1.3-1.2-1.3
		c-0.3,0.1-0.5,0.3-0.5,0.6c-0.7,0.2-0.3-0.5-0.7-0.6c-0.4-0.1-0.2,5.6,0.7,6.1c0.7,0.4,0.3-2.2,0.5-2.6c0,0.2,0.1,0.3,0.3,0.4
		C209.4,65.2,210.2,63.1,210.1,62.9C209.9,62.5,210.2,63.1,210.1,62.9 M210.2,62.6c0.2,0.3,0.4,0.6,0.6,0.8
		c-0.1,0.4-0.2,0.8-0.4,1.2c-0.1,0.6,0,1.7,0.3,2.2c0.2,0.3,3.4,4.4,3.4,4.4c0.6-0.9-2.5-4.3-2.9-5.2c-0.4-1.1-0.5-3.3,0.8-1.6
		c-0.3-0.5,0.7,0.8,0.6,0.8c0,0,0.4-0.3,0.8,0.5c0.1,0.1-0.1-1.3-0.1-1.4c-0.4-0.8-1.3-1.1-1.6-1.9c0.2,0,0.5,0,0.7,0
		C213,60.5,210.4,60.9,210.2,62.6C210.2,63,210.3,62.3,210.2,62.6 M214.6,66.3c0,0.3-0.5,1.4,0,1.6c1.2,0.7-0.1-4.4-0.3-4
		C214.3,64.6,214.6,65.3,214.6,66.3C214.6,66.6,214.6,65.3,214.6,66.3 M185.8,80.6c0.3,0.6,1.1-0.7,0.4-0.3
		C186,80.3,185.7,80.4,185.8,80.6"/>
	<path class="st3" d="M145.4,14.9c0.6-0.2-2.4,0.8-2.7,0c0-1.4,2-0.3,2-0.3c0.2-0.4-2.3-1.8-2.2-1.9c0.9-1.1,1.6,1,2,0.8
		c0.8-0.2-0.4-1.8,1-1.2c1.4,0.6,0.5,1.3,0.4,1.3c0.1,0.2,2.4,0.2,1.7,1.3C147.6,14.8,144.8,15,145.4,14.9
		C145.4,14.9,145.2,15,145.4,14.9"/>
	<path class="st3" d="M169.9,14.7c-0.8,0.1-6.8-3-6.4-3.7C164.2,9.9,171.5,14.7,169.9,14.7C169.5,14.8,169.9,14.7,169.9,14.7"/>
	<path class="st3" d="M165.3,15.2c1.1-1.1,6.3,2.6,7.1,2.8c2,0.5,2.9,1.4,4,2.2c0.8,0.5,3.8,1.1,4.3,1.8c0.3,0.3,1.6,1.1,1.9,1.2
		c1.2,0.5,4.4,0.6,4.4,3c-0.1,0.2-0.2,0.2-0.4,0.1c0,0.2,0.1,0.3,0.3,0.4c-0.3,0.7-0.5-0.1-0.7,0c-0.1,0.1-0.1,0.3-0.1,0.5
		c-1.2,0.4-3.4-0.3-4.5-0.5c-1.3-0.3-1.1,0.1-2.3-1c0,0,0.1,0.5,0.1,0.5c-0.3,0.1-2-1.6-2.5-1.2c-0.3,0.2,0.5,0.9-0.2,1.2
		c-0.9,0.4-0.3-1.9-1.5-0.8c-0.2,0.2,0.6,1,0.5,1c-0.9,0.3-3.2-0.8-4.2-0.5c-3.4,0-0.3,2.5-0.8,3.2c-0.4,0.6-0.5-0.3-0.8-0.3
		c-0.3,0.1-0.5,0.3-0.5,0.6c-0.5-0.2-0.6-1.6-1.1-1.6c-0.5,0-0.1,1.8-1.7,0.6c-0.5-0.4-1.7-2-2.5-1.9c-0.4,0,0.2,0.6,0,0.7
		c-0.2,0.1-4.4-2.1-4.5-2.3c-0.1-0.4,0.8-0.4,0.5-0.8c-0.4-0.5-0.8,0.3-1.1,0c0-0.3,0-0.6,0.1-0.9c-1.3,0.1-0.3-0.3-1.2-0.6
		c-0.2-0.1-0.3,1.3-0.8,0.6c0-0.2,0-0.5,0.1-0.7c0,0-3.8-1.4-2.5-2.3c0.9-0.7,1.9,1.2,2.5,1.1c0.1,0-1.4-1.2-1.5-1.3
		c0.1,0.4,0-0.3-0.4,0c-0.1,0.1,1.2-0.4,1-0.5c-0.4-0.3-3.2-0.1-2.9-1.2c0.2-0.5,2.7,0.1,3.1,0.1c-0.1-0.2-0.3-0.3-0.6-0.3
		c0.3-0.1,3.2-0.5,2.3-1.3c-0.5-0.5,2.1,0.2,1.8,0.3c0.5-0.2-0.2-0.8-0.2-0.9c0.3-0.3,1.4-0.2,0.8-0.8c0.3,0.3,2.6,0.2,2.5,0.3
		c0.3-0.5,0.8,0.1,1.2-0.6c1-1.5,1.3,1.3,2,1.5c-0.5-0.1,0.2-1,0.3-0.7C166.2,15.6,165.8,15.3,165.3,15.2
		C165.7,14.8,165.6,15.3,165.3,15.2 M163.3,16.6c0.1-0.1-0.3-0.7-0.4-0.6C162.9,16.1,163.3,16.7,163.3,16.6 M163.8,16.7
		c0.1,0.5,0.7-0.2,0.7-0.5C164.4,15.9,163.8,16.6,163.8,16.7C164,17.4,163.8,16.5,163.8,16.7 M167.5,16.7c-0.2,0-0.3,0.1-0.4,0.3
		c1.5,0.9-0.1-1.2,0-0.8C167.1,16.3,167.5,16.6,167.5,16.7C167.5,16.7,167.5,16.6,167.5,16.7 M155.4,21.5
		C156.6,22.5,154.8,21,155.4,21.5"/>
	<path class="st3" d="M167.4,34.5c0-0.1-0.1-0.7,0.3-0.5C167.9,34.1,167.1,35.4,167.4,34.5"/>
	<path class="st3" d="M169.3,37.7c-0.3-0.2-0.6-0.4-1-0.4c0.1-0.2,0.2-0.3,0.4-0.3c0,0-0.6-0.6-0.2-0.9c0.4-0.2,1.9,0.7,2.1,1
		c1.7,1.5-1.1,0.3-0.9,0.3C169.6,37.4,169.1,37.7,169.3,37.7C169,37.5,169.3,37.7,169.3,37.7"/>
	<path class="st3" d="M166.3,38.2c0.6-0.4,1.2,0.8,1.8,0.7c0.1-0.2,0-0.5-0.2-0.6c2.2,0.8,0.8,1,0.9,2.5c0,2-1-0.1-1.4-0.1
		c-0.1,0-0.2,1.5-1.2,0.7c0.3,0.2-0.4-1.4-0.3-1.1c-0.5-2.5,2.1,0.7,2.4-0.7C168.2,39.3,166.4,38.7,166.3,38.2
		C166.7,37.9,166.5,39,166.3,38.2"/>
	<path class="st3" d="M144.2,78.7c-0.3,0.2,0.7-1.5,0.7-0.6c0.1,1-1.5,0.6-1.8,1C143.5,78.8,143.9,78.7,144.2,78.7
		C144.4,78.5,144.1,78.8,144.2,78.7"/>
	<path class="st3" d="M178.6,78.3c-0.6-0.4-1.7-1.3-1.7-2.1c0-0.1,2,0.8,0.9,0C178.3,76.5,179.2,78.8,178.6,78.3
		C178,77.9,179.5,78.9,178.6,78.3"/>
	<path class="st3" d="M181,77c0,0-0.4-0.2-0.1-0.2C181.2,76.8,181.6,78.3,181,77"/>
	<path class="st3" d="M223.6,96.1c-0.2-0.7-0.3-8.5,0.2-8.7c-0.1,0.1,0.7,3.8,0.7,4.1c-0.1-0.1-0.2-0.2-0.3-0.3
		c-0.8,1.4,0.2,4.6-0.5,5.2C223.4,96.5,223.4,96.4,223.6,96.1C223.4,95.1,223.4,96.4,223.6,96.1"/>
</g>
<g>
	<defs>
		<path id="SVGID_12_" d="M101.4,204.8c9.8,2.8,25.8,2.6,25.8,2.6l0.1-1.5l-1.4-13.4l-18.6-12.3C105.5,189,101.2,204.8,101.4,204.8"
			/>
	</defs>
	<clipPath id="SVGID_13_">
		<use xlink:href="#SVGID_12_"  style="overflow:visible;"/>
	</clipPath>
	
		<linearGradient id="SVGID_14_" gradientUnits="userSpaceOnUse" x1="0" y1="208.0363" x2="1" y2="208.0363" gradientTransform="matrix(-15.2126 176.538 -176.538 -15.2126 36851.6953 3229.2046)">
		<stop  offset="0" style="stop-color:#FFFFFF"/>
		<stop  offset="0.1206" style="stop-color:#F9FBFD"/>
		<stop  offset="0.2877" style="stop-color:#E7EFF6"/>
		<stop  offset="0.4821" style="stop-color:#C9DBEB"/>
		<stop  offset="0.6968" style="stop-color:#A0C0DC"/>
		<stop  offset="0.9259" style="stop-color:#6C9DC9"/>
		<stop  offset="1" style="stop-color:#5A91C2"/>
	</linearGradient>
	<polygon class="st4" points="101.4,178 98.8,207.5 127.1,209.9 129.6,180.5 	"/>
</g>
<g>
	<defs>
		<path id="SVGID_15_" d="M62.7,56.1c-0.9-0.5-4.5-2-7.5-0.6c-4.9,2.4-3.9,6.2-3.9,6.4c-1,0.8-1.1,1.2-1.9,2
			c-5.7,6.2-9.6,12.8-12.9,20.5c-0.6,1.4-7.6,15.5-10.3,26.1c-1.6,6-1.5,6.2-2.1,11.6c7.2,43.6,38.6,64.5,38.6,64.5l0.8-18.2
			l-4.1-4.6l0.4-1.3l5.6,4.6l3,23.6c6.3,3.7,15.2,8.6,28.5,13c4.2-11.2,7.2-15.6,6.3-32.6l1.8,4c-0.1,1,2.7,3.3,2.7,3.4l19.9,13
			l3,15.7c0,0,21.1-0.3,43.6-12.1c2.6-19.8,4.6-40.1-3.9-53.5c-20.3-32.1-68.5-39.3-83.3-46.2c3.1-9.1,1.2-16.2,21-14.4
			c1.7-1.6,6.5-11.1,5.5-13.2c-5.5-2.8-18.9-5.8-18.9-5.8s-2.8-4-6.4-5.5c-4.2-1.7-8.6-2.7-13.1-2.7C70.8,53.7,66.8,54.5,62.7,56.1"
			/>
	</defs>
	<clipPath id="SVGID_16_">
		<use xlink:href="#SVGID_15_"  style="overflow:visible;"/>
	</clipPath>
	
		<linearGradient id="SVGID_17_" gradientUnits="userSpaceOnUse" x1="0" y1="208.032" x2="1" y2="208.032" gradientTransform="matrix(-15.2126 176.538 -176.538 -15.2126 36832.5352 3227.5535)">
		<stop  offset="0" style="stop-color:#FFFFFF"/>
		<stop  offset="0.1206" style="stop-color:#F9FBFD"/>
		<stop  offset="0.2877" style="stop-color:#E7EFF6"/>
		<stop  offset="0.4821" style="stop-color:#C9DBEB"/>
		<stop  offset="0.6968" style="stop-color:#A0C0DC"/>
		<stop  offset="0.9259" style="stop-color:#6C9DC9"/>
		<stop  offset="1" style="stop-color:#5A91C2"/>
	</linearGradient>
	<polygon class="st5" points="25,40.5 10.8,206.1 177.3,220.4 191.6,54.8 	"/>
</g>
<g>
	<defs>
		<rect id="SVGID_18_" width="250.6" height="208"/>
	</defs>
	<clipPath id="SVGID_19_">
		<use xlink:href="#SVGID_18_"  style="overflow:visible;"/>
	</clipPath>
	<path class="st6" d="M127.2,207.4l0.1-1.5l-1.4-13.4l-18.6-12.3c-1.8,8.7-6.1,24.5-5.9,24.6C111.1,207.7,127.2,207.4,127.2,207.4z
		 M173.9,195.1c2.6-19.8,4.6-40.1-3.9-53.5c-20.3-32.1-68.5-39.3-83.3-46.2c3.1-9.2,1.2-16.2,21-14.4c1.7-1.6,6.5-11.1,5.5-13.2
		c-5.5-2.8-18.9-5.8-18.9-5.8s-2.8-4-6.4-5.5c-7.9-3.2-16.3-3.8-25.2-0.3c-0.9-0.5-4.5-2-7.5-0.6c-4.9,2.4-3.9,6.2-3.9,6.4
		c-1,0.8-1.1,1.2-1.9,2c-5.7,6.2-9.6,12.8-12.9,20.5c-0.6,1.4-7.6,15.5-10.3,26.1c-1.6,6-1.5,6.2-2.1,11.6
		c7.2,43.6,38.6,64.5,38.6,64.5l0.8-18.2l-4.1-4.6l0.4-1.3l5.6,4.6l3,23.6c6.3,3.7,15.2,8.6,28.5,13c4.2-11.2,7.2-15.6,6.3-32.6
		l1.8,4c-0.1,1,2.7,3.3,2.7,3.4l19.9,13l3,15.7C130.3,207.2,151.4,206.9,173.9,195.1z"/>
	<path class="st7" d="M228.2,103.9c0,57.2-46.3,103.8-103.5,103.5C66.4,207.1,22.6,161.2,22.6,104C22.6,42.2,76.7,0.3,124.7,0.3
		C181.8,0.3,228.2,46.7,228.2,103.9z"/>
</g>
<g>
	<defs>
		<path id="SVGID_20_" d="M22.3,104.1c0,57.2,45,103.4,102.3,103.4c57.3,0,103.8-46.3,103.8-103.5C228.4,46.8,182,0.5,124.7,0.5
			C76.6,0.5,22.3,42.3,22.3,104.1"/>
	</defs>
	<clipPath id="SVGID_21_">
		<use xlink:href="#SVGID_20_"  style="overflow:visible;"/>
	</clipPath>
	<rect x="22.3" y="0.5" class="st8" width="206.1" height="207"/>
</g>
<g>
	<defs>
		<rect id="SVGID_22_" width="250.6" height="208"/>
	</defs>
	<clipPath id="SVGID_23_">
		<use xlink:href="#SVGID_22_"  style="overflow:visible;"/>
	</clipPath>
	<path class="st9" d="M22.3,104.1c0,57.2,45,103.4,102.3,103.4c57.3,0,103.8-46.3,103.8-103.5C228.4,46.8,182,0.5,124.7,0.5
		C76.6,0.5,22.3,42.3,22.3,104.1"/>
</g>
<polygon class="st10" points="0.5,83.3 1.3,87.3 1.3,172.1 0.5,176.1 14.5,176.1 13.7,172.1 13.7,87.3 14.5,83.3 "/>
<g>
	<defs>
		<rect id="SVGID_24_" width="250.6" height="208"/>
	</defs>
	<clipPath id="SVGID_25_">
		<use xlink:href="#SVGID_24_"  style="overflow:visible;"/>
	</clipPath>
	<polygon class="st11" points="1.3,172.1 1.3,87.3 0.5,83.3 14.5,83.3 13.7,87.3 13.7,172.1 14.5,176.1 0.5,176.1 	"/>
	<path class="st12" d="M102.2,176l-15.7,0c0,0,0.1-3.3-0.2-4.1c-1-2.7-8.3-21.8-10.6-27.5c-0.5-1.3-1.1-2.7-1.6-4
		c-1.4,0-34.1-0.1-34.1-0.1s-10.2,24.5-13.1,31.6c-0.5,1.2-0.7,4.3-0.7,4.3l-9.2-0.1l39.4-92.6l4.1,0
		C60.3,83.3,102.4,176.1,102.2,176 M72.1,134.1c-5-11.4-10-22.8-15-34.2c-4.9,11.4-9.8,22.8-14.7,34.2H72.1z"/>
	<path class="st11" d="M102.2,176l-15.7,0c0,0,0.1-3.3-0.2-4.1c-1-2.7-8.3-21.8-10.6-27.5c-0.5-1.3-1.1-2.7-1.6-4
		c-1.4,0-34.1-0.1-34.1-0.1s-10.2,24.5-13.1,31.6c-0.5,1.2-0.7,4.3-0.7,4.3l-9.2-0.1l39.4-92.6l4.1,0
		C60.3,83.3,102.4,176.1,102.2,176 M72.1,134.1c-5-11.4-10-22.8-15-34.2c-4.9,11.4-9.8,22.8-14.7,34.2H72.1z"/>
	<path class="st12" d="M107.3,172l0-84.7l-0.9-4c0,0,25.4,0.1,30.5,0c8.8-0.1,19.4,1.2,25.3,8.7c5.3,6.8,4.9,18.4,0.1,25.5
		c-4.6,6-9.9,8.7-15.3,11.7c6.1,7.6,44.2,60,44.2,60s-3.3,1.9-7.5-2.1c-0.4-0.3-42.7-46.2-51.5-55.5l-12.8,0c0,2.3,0.7,30,1,40.4
		l1.1,4l-15.1,0L107.3,172z M119.3,126.9c8.8-0.1,28.2-1.5,33.2-12.4c5-10.6-0.6-22.8-12.1-25.4c-3.8-0.9-20.7-1.7-20.7-1.7
		C119.7,87.5,119.3,126.5,119.3,126.9"/>
	<path class="st11" d="M107.3,172l0-84.7l-0.9-4c0,0,25.4,0.1,30.5,0c8.8-0.1,19.4,1.2,25.3,8.7c5.3,6.8,4.9,18.4,0.1,25.5
		c-4.6,6-9.9,8.7-15.3,11.7c6.1,7.6,44.2,60,44.2,60s-3.3,1.9-7.5-2.1c-0.4-0.3-42.7-46.2-51.5-55.5l-12.8,0c0,2.3,0.7,30,1,40.4
		l1.1,4l-15.1,0L107.3,172z M119.3,126.9c8.8-0.1,28.2-1.5,33.2-12.4c5-10.6-0.6-22.8-12.1-25.4c-3.8-0.9-20.7-1.7-20.7-1.7
		C119.7,87.5,119.3,126.5,119.3,126.9"/>
	<path class="st12" d="M221.4,177.6c-7,0-15.9-1-21.9-3c-6-2-11.1-5-15.4-9.1c-4.3-4.1-7.7-9-10.1-14.9c-2.5-5.9-3.7-12.5-3.7-20
		c0-7.5,1.2-14.2,3.7-20c2.4-5.9,5.9-10.8,10.3-14.9c4.4-4.1,9.7-7.1,15.8-9.3c6.1-2.1,12.9-3.2,20.3-3.2c5.9,0,11.2,0.6,16.1,1.8
		c4.9,1.2,12.9,4.3,12.9,4.3s1.5,8.1-2.2,15.9c-0.9-1.4-3.3-6.4-4.9-8.4c-1.4-1.6-3.7-3-5.9-4.3c-2.1-1.2-4.5-2.3-7.2-3.1
		c-2.7-0.8-5.6-1.3-8.8-1.3c-5.3,0-10.1,0.8-14.6,2.5c-4.5,1.7-8.4,4.2-11.7,7.7c-3.3,3.5-5.9,7.9-7.8,13.2
		c-1.9,5.3-2.8,11.7-2.8,19c0,7.3,0.9,13.6,2.8,19c1.9,5.3,4.5,9.7,7.8,13.2c3.3,3.5,7.3,6.1,11.7,7.7c4.5,1.7,11.8,2.5,17,2.5
		c3.2,0,6.2-0.4,8.9-1.2c2.7-0.8,5.2-1.7,7.5-2.8c2.3-1.1,4.3-2.3,6.1-3.6c1.8-1.3,4.6-3.4,4.6-3.4s-0.6,8.9-4.5,10.6
		C238.4,176.6,229.8,177.6,221.4,177.6"/>
	<path class="st11" d="M221.4,177.6c-7,0-15.9-1-21.9-3c-6-2-11.1-5-15.4-9.1c-4.3-4.1-7.7-9-10.1-14.9c-2.5-5.9-3.7-12.5-3.7-20
		c0-7.5,1.2-14.2,3.7-20c2.4-5.9,5.9-10.8,10.3-14.9c4.4-4.1,9.7-7.1,15.8-9.3c6.1-2.1,12.9-3.2,20.3-3.2c5.9,0,11.2,0.6,16.1,1.8
		c4.9,1.2,12.9,4.3,12.9,4.3s1.5,8.1-2.2,15.9c-0.9-1.4-3.3-6.4-4.9-8.4c-1.4-1.6-3.7-3-5.9-4.3c-2.1-1.2-4.5-2.3-7.2-3.1
		c-2.7-0.8-5.6-1.3-8.8-1.3c-5.3,0-10.1,0.8-14.6,2.5c-4.5,1.7-8.4,4.2-11.7,7.7c-3.3,3.5-5.9,7.9-7.8,13.2
		c-1.9,5.3-2.8,11.7-2.8,19c0,7.3,0.9,13.6,2.8,19c1.9,5.3,4.5,9.7,7.8,13.2c3.3,3.5,7.3,6.1,11.7,7.7c4.5,1.7,11.8,2.5,17,2.5
		c3.2,0,6.2-0.4,8.9-1.2c2.7-0.8,5.2-1.7,7.5-2.8c2.3-1.1,4.3-2.3,6.1-3.6c1.8-1.3,4.6-3.4,4.6-3.4s-0.6,8.9-4.5,10.6
		C238.4,176.6,229.8,177.6,221.4,177.6"/>
</g>
</svg>
